<?xml version="1.0" encoding="UTF-8" standalone="no"?>
<svg
   xmlns:dc="http://purl.org/dc/elements/1.1/"
   xmlns:cc="http://creativecommons.org/ns#"
   xmlns:rdf="http://www.w3.org/1999/02/22-rdf-syntax-ns#"
   xmlns:svg="http://www.w3.org/2000/svg"
   xmlns="http://www.w3.org/2000/svg"
   xmlns:sodipodi="http://sodipodi.sourceforge.net/DTD/sodipodi-0.dtd"
   xmlns:inkscape="http://www.inkscape.org/namespaces/inkscape"
   id="svg8"
   version="1.1"
   viewBox="0 0 67.085452 19.999999"
   height="2cm"
   width="6.7085452cm"
   sodipodi:docname="logo.svg"
   inkscape:version="0.92.4 (5da689c313, 2019-01-14)">
  <sodipodi:namedview
     pagecolor="#ffffff"
     bordercolor="#666666"
     borderopacity="1"
     objecttolerance="10"
     gridtolerance="10"
     guidetolerance="10"
     inkscape:pageopacity="0"
     inkscape:pageshadow="2"
     inkscape:window-width="1920"
     inkscape:window-height="1043"
     id="namedview828"
     showgrid="false"
     units="cm"
     fit-margin-top="0"
     fit-margin-left="0"
     fit-margin-right="0"
     fit-margin-bottom="0"
     inkscape:zoom="1.0733976"
     inkscape:cx="173.15746"
     inkscape:cy="49.212072"
     inkscape:window-x="0"
     inkscape:window-y="0"
     inkscape:window-maximized="1"
     inkscape:current-layer="svg8" />
  <defs
     id="defs2" />
  <metadata
     id="metadata5">
    <rdf:RDF>
      <cc:Work
         rdf:about="">
        <dc:format>image/svg+xml</dc:format>
        <dc:type
           rdf:resource="http://purl.org/dc/dcmitype/StillImage" />
        <dc:title></dc:title>
      </cc:Work>
    </rdf:RDF>
  </metadata>
  <g
     aria-label="Seis  Sol"
     style="font-style:normal;font-variant:normal;font-weight:normal;font-stretch:normal;font-size:13.85175991px;line-height:1.25;font-family:'Noto Serif Khmer';-inkscape-font-specification:'Noto Serif Khmer';letter-spacing:0px;word-spacing:0px;fill:#000000;fill-opacity:1;stroke:none;stroke-width:0.34629402"
     id="text817"
     transform="matrix(1.3333334,0,0,1.3333334,0,-4.2918703e-6)">
    <path
       d="m 3.097708,12.884578 q -0.3922861,0 -0.7507545,-0.04734 Q 1.9952486,12.789888 1.7111793,12.701962 1.42711,12.607272 1.1971492,12.519346 0.97395187,12.424656 0.77104523,12.296149 0.57490214,12.160878 0.46668527,12.086478 0.3584684,12.012079 0.22996086,11.903862 0.10821687,11.788882 0.09468977,11.782118 l 0.34494128,-0.500503 q 0.18261598,0.162326 0.25025152,0.223198 0.0743991,0.06087 0.35846843,0.250251 0.2908328,0.182616 0.5343208,0.277306 0.2502515,0.09469 0.6628283,0.182616 0.4125769,0.08793 0.8522079,0.08793 1.0686417,0 1.7111794,-0.547848 Q 5.451425,11.200453 5.4852428,10.3009 5.5055335,9.7936334 5.4176073,9.4622192 5.3364446,9.130805 5.0861931,8.8670264 4.8359416,8.5964842 4.4233647,8.4138682 4.0175515,8.2312523 3.341196,8.0553999 L 2.3334264,7.7916212 Q 1.5353269,7.581951 1.0415874,7.2911182 0.55461148,6.9935218 0.27730574,6.4862552 0,5.972225 0,5.2147069 0,4.0513755 0.804863,3.3885471 1.6164896,2.7257188 3.0503631,2.7257188 q 0.3719955,0 0.7034097,0.040581 0.3381778,0.040581 0.5884293,0.1149804 0.2570151,0.074399 0.4599217,0.1487983 0.2029066,0.074399 0.3652319,0.1758524 0.1623254,0.1014533 0.2502516,0.1690888 0.09469,0.060872 0.1893795,0.1420347 0.09469,0.081163 0.1014533,0.087926 l -0.317887,0.500503 Q 5.2823362,3.9972671 5.1267744,3.8890502 4.9712127,3.7740698 4.6871434,3.6320351 4.4098376,3.4832369 3.9769701,3.3953107 3.5508662,3.3073845 3.0503631,3.3073845 q -1.1024594,0 -1.7111793,0.500503 -0.6087199,0.5005031 -0.6087199,1.4068194 0,0.8792621 0.365232,1.2918389 0.3652319,0.4058133 1.4000558,0.6763555 l 1.0010061,0.2570151 q 0.8522078,0.2164337 1.3797651,0.4734488 0.5343208,0.2570151 0.8251537,0.6154835 0.2908328,0.3517048 0.3855226,0.7575181 0.1014533,0.4058133 0.081163,1.0077692 -0.033818,1.176859 -0.8522078,1.887032 -0.8183902,0.70341 -2.2184464,0.70341 z"
       style="font-style:normal;font-variant:normal;font-weight:200;font-stretch:normal;font-family:Muli;-inkscape-font-specification:'Muli Ultra-Light';stroke-width:0.34629402"
       id="path902"
       inkscape:connector-curvature="0" />
    <path
       d="m 8.156847,8.8332086 h 5.147065 q -0.06764,-1.2106762 -0.750755,-1.927613 -0.676355,-0.7237004 -1.758524,-0.7237004 -1.1092227,0 -1.8261595,0.7237004 -0.7169368,0.7169368 -0.8116265,1.927613 z m 2.800112,4.0513694 q -1.6029628,0 -2.5633876,-0.973952 -0.9536612,-0.973952 -0.9536612,-2.6039685 0,-1.6773616 0.9130799,-2.6783677 0.9130798,-1.0010061 2.4416429,-1.0010061 1.400056,0 2.231973,0.8995528 0.831918,0.8927892 0.831918,2.3942983 V 9.313421 H 8.1162657 q -0.013527,1.373002 0.7575181,2.198155 0.7710452,0.81839 2.0831752,0.81839 0.642537,0 1.258021,-0.20967 0.615483,-0.20967 1.082169,-0.574902 l 0.243487,0.466685 q -0.480212,0.39905 -1.183622,0.635774 -0.696646,0.236725 -1.400055,0.236725 z"
       style="font-style:normal;font-variant:normal;font-weight:200;font-stretch:normal;font-family:Muli;-inkscape-font-specification:'Muli Ultra-Light';stroke-width:0.34629402"
       id="path904"
       inkscape:connector-curvature="0" />
    <path
       d="m 15.738792,3.6387987 v -0.743991 h 0.662828 v 0.743991 z m 0,9.1037443 V 5.8031362 h 0.662828 v 6.9394068 z"
       style="font-style:normal;font-variant:normal;font-weight:200;font-stretch:normal;font-family:Muli;-inkscape-font-specification:'Muli Ultra-Light';stroke-width:0.34629402"
       id="path906"
       inkscape:connector-curvature="0" />
    <path
       d="m 21.000837,12.884578 q -1.31213,0 -2.401062,-0.791336 l 0.250251,-0.51403 q 0.0068,0.0068 0.101454,0.0744 0.101453,0.06087 0.162325,0.101453 0.06763,0.04058 0.202907,0.114981 0.142034,0.0744 0.257015,0.128507 0.11498,0.04734 0.284069,0.114981 0.175852,0.06087 0.338178,0.101453 0.162325,0.03382 0.365232,0.06087 0.20967,0.02705 0.412576,0.02705 1.832924,0 1.832924,-1.33242 0,-0.554612 -0.28407,-0.838681 Q 22.245331,9.8477418 21.555448,9.6380716 L 20.162156,9.2119677 Q 19.343766,8.9617162 18.95148,8.5761936 18.565957,8.1839074 18.565957,7.4466799 q 0,-0.9198434 0.676355,-1.366238 0.676356,-0.4531582 1.859978,-0.4531582 1.23773,0 2.069648,0.5072666 l -0.216434,0.4937395 q -0.81839,-0.4463946 -1.853214,-0.4463946 -1.866741,0 -1.880268,1.2106763 0,0.5343208 0.236724,0.7778088 0.243488,0.2367244 0.953661,0.4531581 l 1.359475,0.426104 q 0.879262,0.2773057 1.271548,0.6763554 0.39905,0.3990502 0.39905,1.1227502 0,0.520794 -0.18938,0.919843 -0.189379,0.392287 -0.527557,0.635774 -0.331414,0.243488 -0.771045,0.358469 -0.432868,0.121744 -0.953661,0.121744 z"
       style="font-style:normal;font-variant:normal;font-weight:200;font-stretch:normal;font-family:Muli;-inkscape-font-specification:'Muli Ultra-Light';stroke-width:0.34629402"
       id="path908"
       inkscape:connector-curvature="0" />
    <path
       d="m 36.239126,12.884578 q -0.392286,0 -0.750754,-0.04734 -0.351705,-0.04734 -0.635774,-0.135271 -0.28407,-0.09469 -0.51403,-0.182616 -0.223198,-0.09469 -0.426104,-0.223197 -0.196143,-0.135271 -0.30436,-0.209671 -0.108217,-0.0744 -0.236725,-0.182616 -0.121744,-0.11498 -0.135271,-0.121744 L 33.58105,11.28162 q 0.182615,0.162326 0.250251,0.223198 0.0744,0.06087 0.358468,0.250251 0.290833,0.182616 0.534321,0.277306 0.250252,0.09469 0.662829,0.182616 0.412576,0.08793 0.852207,0.08793 1.068642,0 1.71118,-0.547848 0.642537,-0.554611 0.676355,-1.454164 0.02029,-0.5072666 -0.06763,-0.8386808 Q 38.477863,9.130805 38.227612,8.8670264 37.97736,8.5964842 37.564783,8.4138682 37.15897,8.2312523 36.482614,8.0553999 L 35.474845,7.7916212 Q 34.676745,7.581951 34.183006,7.2911182 33.69603,6.9935218 33.418724,6.4862552 33.141418,5.972225 33.141418,5.2147069 q 0,-1.1633314 0.804863,-1.8261598 0.811627,-0.6628283 2.245501,-0.6628283 0.371995,0 0.703409,0.040581 0.338178,0.040581 0.58843,0.1149804 0.257015,0.074399 0.459921,0.1487983 0.202907,0.074399 0.365232,0.1758524 0.162326,0.1014533 0.250252,0.1690888 0.09469,0.060872 0.189379,0.1420347 0.09469,0.081163 0.101454,0.087926 l -0.317887,0.500503 Q 38.423755,3.9972671 38.268193,3.8890502 38.112631,3.7740698 37.828562,3.6320351 37.551256,3.4832369 37.118389,3.3953107 q -0.426104,-0.087926 -0.926607,-0.087926 -1.10246,0 -1.71118,0.500503 -0.60872,0.5005031 -0.60872,1.4068194 0,0.8792621 0.365232,1.2918389 0.365232,0.4058133 1.400056,0.6763555 l 1.001006,0.2570151 q 0.852208,0.2164337 1.379765,0.4734488 0.534321,0.2570151 0.825154,0.6154835 0.290833,0.3517048 0.385523,0.7575181 0.101453,0.4058133 0.08116,1.007769 -0.03382,1.176859 -0.852208,1.887032 -0.81839,0.70341 -2.218446,0.70341 z"
       style="font-style:normal;font-variant:normal;font-weight:200;font-stretch:normal;font-family:Muli;-inkscape-font-specification:'Muli Ultra-Light';stroke-width:0.34629402"
       id="path910"
       inkscape:connector-curvature="0" />
    <path
       d="m 44.091611,12.884578 q -1.602962,0 -2.556624,-0.973952 -0.953661,-0.980715 -0.953661,-2.6174956 0,-1.6773616 0.953661,-2.6716041 0.953662,-0.9942426 2.556624,-0.9942426 1.602963,0 2.556624,0.9942426 0.953661,0.9942425 0.953661,2.6716041 0,1.6367806 -0.953661,2.6174956 -0.953661,0.973952 -2.556624,0.973952 z m 0,-0.554612 q 1.33242,0 2.083175,-0.81839 0.750755,-0.81839 0.750755,-2.2184456 0,-1.4338736 -0.750755,-2.2725544 -0.750755,-0.8386808 -2.083175,-0.8386808 -1.33242,0 -2.083175,0.8386808 -0.750754,0.8386808 -0.750754,2.2725544 0,1.4000556 0.750754,2.2184456 0.750755,0.81839 2.083175,0.81839 z"
       style="font-style:normal;font-variant:normal;font-weight:200;font-stretch:normal;font-family:Muli;-inkscape-font-specification:'Muli Ultra-Light';stroke-width:0.34629402"
       id="path912"
       inkscape:connector-curvature="0" />
    <path
       d="M 49.651256,12.742543 V 2.4889944 h 0.662829 V 12.742543 Z"
       style="font-style:normal;font-variant:normal;font-weight:200;font-stretch:normal;font-family:Muli;-inkscape-font-specification:'Muli Ultra-Light';stroke-width:0.34629402"
       id="path914"
       inkscape:connector-curvature="0" />
  </g>
  <g
     id="g855"
     transform="matrix(1.6443991,0,0,1.6443991,-125.628,-159.07668)">
    <path
       id="path821"
       d="m 96.709297,98.10166 c 3.08015,1.87019 1.33642,6.03854 4.803003,10.65981"
       style="fill:none;stroke:#000000;stroke-width:0.465;stroke-linecap:butt;stroke-linejoin:miter;stroke-miterlimit:4;stroke-dasharray:none;stroke-opacity:1"
       inkscape:connector-curvature="0" />
    <path
       id="path823"
       d="m 99.522467,104.73788 c -0.61704,-4.78285 2.088653,-4.85844 0.21994,-7.87701"
       style="fill:none;stroke:#000000;stroke-width:0.465;stroke-linecap:butt;stroke-linejoin:miter;stroke-miterlimit:4;stroke-dasharray:none;stroke-opacity:1"
       inkscape:connector-curvature="0" />
    <path
       style="fill:none;stroke:#000000;stroke-width:0.26499999;stroke-linecap:butt;stroke-linejoin:miter;stroke-miterlimit:4;stroke-dasharray:none;stroke-opacity:1"
       d="m 102.16063,105.65438 -0.20177,1.37056 c 0,0 -1.44706,-2.06962 -1.30482,-3.48006"
       id="path831"
       inkscape:connector-curvature="0" />
    <path
       id="path835"
       d="m 97.963557,105.77112 0.20177,-1.37056 c 0,0 0.76198,2.89644 1.80092,4.04702"
       style="fill:none;stroke:#000000;stroke-width:0.26499999;stroke-linecap:butt;stroke-linejoin:miter;stroke-miterlimit:4;stroke-dasharray:none;stroke-opacity:1"
       inkscape:connector-curvature="0" />
  </g>
  <g
     transform="rotate(41.339355,208.28239,-69.981814)"
     id="g876" />
</svg>
