<?xml version="1.0" encoding="UTF-8" standalone="no"?>
<svg
   xmlns:dc="http://purl.org/dc/elements/1.1/"
   xmlns:cc="http://creativecommons.org/ns#"
   xmlns:rdf="http://www.w3.org/1999/02/22-rdf-syntax-ns#"
   xmlns:svg="http://www.w3.org/2000/svg"
   xmlns="http://www.w3.org/2000/svg"
   width="6.3424358cm"
   height="2.0180311cm"
   viewBox="0 0 63.424358 20.180311"
   version="1.1"
   id="svg8">
  <defs
     id="defs2" />
  <metadata
     id="metadata5">
    <rdf:RDF>
      <cc:Work
         rdf:about="">
        <dc:format>image/svg+xml</dc:format>
        <dc:type
           rdf:resource="http://purl.org/dc/dcmitype/StillImage" />
        <dc:title></dc:title>
      </cc:Work>
    </rdf:RDF>
  </metadata>
  <g
     style="stroke:#000000;stroke-opacity:1"
     id="g826">
    <path
       style="fill:none;stroke:#000000;stroke-width:1.08479166;stroke-linecap:butt;stroke-linejoin:miter;stroke-miterlimit:4;stroke-dasharray:none;stroke-opacity:1;opacity:1"
       d="m 30.274691,2.3258547 c 5.064996,3.0753388 2.197608,9.9297693 7.898054,17.5289813"
       id="path821" />
    <path
       style="fill:none;stroke:#000000;stroke-width:1.08479166;stroke-linecap:butt;stroke-linejoin:miter;stroke-miterlimit:4;stroke-dasharray:none;stroke-opacity:1;opacity:1"
       d="M 34.900665,13.238449 C 33.886005,5.3735347 38.335244,5.2492345 35.262334,0.28550077"
       id="path823" />
  </g>
  <path
     style="fill:none;stroke:#000000;stroke-width:0.47624999;stroke-linecap:butt;stroke-linejoin:miter;stroke-miterlimit:4;stroke-dasharray:none;stroke-opacity:1"
     d="m 39.238858,14.74554 -0.33179,2.253748 c 0,0 -2.379545,-3.403281 -2.145645,-5.722608"
     id="path831" />
  <path
     id="path835"
     d="m 32.337195,14.937508 0.33179,-2.253748 c 0,0 1.253,4.762903 2.961432,6.654916"
     style="fill:none;stroke:#000000;stroke-width:0.47624999;stroke-linecap:butt;stroke-linejoin:miter;stroke-miterlimit:4;stroke-dasharray:none;stroke-opacity:1" />
  <g
     id="g876"
     transform="rotate(41.339355,206.60773,-74.082664)" />
  <g
     id="text830"
     style="font-style:normal;font-variant:normal;font-weight:300;font-stretch:normal;font-size:18.80600548px;line-height:1.25;font-family:'Segoe UI';-inkscape-font-specification:'Segoe UI Light';letter-spacing:0px;word-spacing:0px;fill:#000000;fill-opacity:1;stroke:none;stroke-width:0.51278603"
     aria-label="Seis  Sol">
    <path
       id="path822"
       style="font-style:normal;font-variant:normal;font-weight:300;font-stretch:normal;font-size:18.80600548px;font-family:'Segoe UI';-inkscape-font-specification:'Segoe UI Light';fill:#000000;fill-opacity:1;stroke-width:0.51278603"
       d="M -2.4214387e-8,15.232157 Q 0.33057429,15.480088 0.72542694,15.682105 1.1294622,15.87494 1.5426801,16.01268 q 0.4224005,0.128556 0.844801,0.202017 0.4224006,0.06428 0.8080706,0.06428 1.496767,0 2.2405592,-0.578505 0.7437922,-0.578505 0.7437922,-1.662055 0,-0.523409 -0.1744697,-0.909079 Q 5.8309636,12.734484 5.4636588,12.394727 5.096354,12.054971 4.5362142,11.724396 3.9760744,11.384639 3.2139169,10.962239 2.3691159,10.503108 1.763063,10.099073 1.1661927,9.6858546 0.78052266,9.2634541 0.40403525,8.831871 0.22038285,8.3360095 0.04591308,7.840148 0.04591308,7.2065473 q 0,-0.798888 0.33975693,-1.4324887 Q 0.72542694,5.1404578 1.303932,4.699692 1.882437,4.2497437 2.6537771,4.0109956 3.4342998,3.7722474 4.3158313,3.7722474 q 1.5518628,0 2.5986814,0.4315832 V 5.5536757 Q 5.74832,4.8833444 4.178092,4.8833444 q -0.5876877,0 -1.111097,0.146922 Q 2.5527683,5.1680057 2.1579156,5.4434843 1.7722456,5.7189629 1.5426801,6.1321807 1.3222972,6.536216 1.3222972,7.0779906 q 0,0.5142267 0.146922,0.8907141 0.1561045,0.3673048 0.4866788,0.6978791 0.3397569,0.3305743 0.8815315,0.6611487 0.5509572,0.3213917 1.3406625,0.7437925 0.8264358,0.440765 1.4416713,0.863166 0.6152356,0.413218 1.0192708,0.872349 0.4132179,0.449948 0.6152356,0.964175 0.2020176,0.505044 0.2020176,1.129462 0,0.863166 -0.3213917,1.524315 -0.3213917,0.651966 -0.8998967,1.083549 -0.5785051,0.431583 -1.377393,0.651966 -0.7988879,0.220383 -1.7538804,0.220383 -0.3122091,0 -0.7437922,-0.0551 Q 1.9283501,17.279881 1.4875844,17.178872 1.0468186,17.087046 0.64278337,16.95849 0.24793071,16.82075 -2.4214387e-8,16.664646 Z" />
    <path
       id="path824"
       style="font-style:normal;font-variant:normal;font-weight:300;font-stretch:normal;font-size:18.80600548px;font-family:'Segoe UI';-inkscape-font-specification:'Segoe UI Light';fill:#000000;fill-opacity:1;stroke-width:0.51278603"
       d="m 10.541648,12.670206 q 0.0092,0.863166 0.229565,1.551863 0.220383,0.688696 0.633601,1.166193 0.413218,0.477496 1.000906,0.734609 0.59687,0.247931 1.340662,0.247931 1.588593,0 3.002717,-1.111097 v 1.15701 q -1.349845,0.964175 -3.269013,0.964175 -0.94581,0 -1.71715,-0.330574 -0.77134,-0.330575 -1.313115,-0.954993 -0.5417741,-0.6336 -0.8356179,-1.551862 -0.2938439,-0.918262 -0.2938439,-2.093638 0,-1.056001 0.3213917,-1.955898 0.3213917,-0.8998966 0.8907141,-1.5518626 0.569322,-0.6611486 1.349845,-1.0284534 0.780523,-0.3764874 1.707967,-0.3764874 0.90908,0 1.606959,0.3213917 0.697879,0.3122091 1.166193,0.8998967 0.477496,0.5876877 0.725427,1.432489 0.24793,0.844801 0.24793,1.891619 v 0.587688 z m 5.583033,-1.028453 q -0.02755,-1.46922 -0.69788,-2.2772901 -0.670331,-0.8080705 -1.864071,-0.8080705 -0.596871,0 -1.111097,0.2112002 -0.505044,0.2112003 -0.890715,0.6152356 -0.38567,0.3948526 -0.642783,0.9733578 -0.247931,0.569322 -0.348939,1.285567 z" />
    <path
       id="path826"
       style="font-style:normal;font-variant:normal;font-weight:300;font-stretch:normal;font-size:18.80600548px;font-family:'Segoe UI';-inkscape-font-specification:'Segoe UI Light';fill:#000000;fill-opacity:1;stroke-width:0.51278603"
       d="m 20.220129,5.3792059 q -0.339757,0 -0.587688,-0.2387481 -0.24793,-0.2387481 -0.24793,-0.6060529 0,-0.3581222 0.24793,-0.5876877 0.247931,-0.2387481 0.587688,-0.2387481 0.17447,0 0.330574,0.064278 0.156105,0.055096 0.266296,0.1652872 0.119374,0.1101914 0.183653,0.266296 0.07346,0.1469219 0.07346,0.3305743 0,0.1744698 -0.06428,0.3305743 -0.06428,0.1561045 -0.183652,0.2754786 -0.119374,0.1101914 -0.275479,0.1744698 -0.146921,0.064278 -0.330574,0.064278 z M 19.641624,17.160507 V 7.7575045 h 1.175375 v 9.4030025 z" />
    <path
       id="path828"
       style="font-style:normal;font-variant:normal;font-weight:300;font-stretch:normal;font-size:18.80600548px;font-family:'Segoe UI';-inkscape-font-specification:'Segoe UI Light';fill:#000000;fill-opacity:1;stroke-width:0.51278603"
       d="m 23.333037,15.470905 q 0.266296,0.2112 0.578505,0.376488 0.312209,0.165287 0.642783,0.284661 0.330575,0.119374 0.661149,0.183652 0.339757,0.0551 0.642783,0.0551 2.093638,0 2.093638,-1.570228 0,-0.358122 -0.146922,-0.615236 -0.146922,-0.266296 -0.422401,-0.477496 -0.275478,-0.220383 -0.661148,-0.404035 -0.38567,-0.183653 -0.872349,-0.38567 -0.651966,-0.266296 -1.12028,-0.541775 -0.468314,-0.275478 -0.77134,-0.59687 -0.303026,-0.330574 -0.449948,-0.716244 -0.146922,-0.394853 -0.146922,-0.890715 0,-0.6244177 0.266296,-1.1110965 0.275478,-0.4866789 0.734609,-0.8264358 0.459131,-0.3397569 1.056002,-0.5142267 0.606052,-0.1836524 1.267201,-0.1836524 1.221289,0 2.130368,0.459131 v 1.2396537 q -1.056001,-0.6795139 -2.27729,-0.6795139 -0.440766,0 -0.80807,0.1101914 -0.358123,0.1101915 -0.615236,0.3122091 -0.257113,0.2020176 -0.404035,0.4866789 -0.137739,0.2754786 -0.137739,0.6152352 0,0.34894 0.110191,0.615236 0.110191,0.257113 0.339757,0.468313 0.238748,0.211201 0.606053,0.404036 0.376487,0.192835 0.909079,0.413218 0.679514,0.275478 1.175376,0.550957 0.495861,0.266296 0.817253,0.587687 0.321391,0.31221 0.477496,0.707062 0.156104,0.38567 0.156104,0.899897 0,0.633601 -0.266296,1.129462 -0.257113,0.495862 -0.725426,0.835619 -0.459131,0.339757 -1.08355,0.514226 -0.624418,0.17447 -1.359027,0.17447 -1.423306,0 -2.396664,-0.59687 z" />
    <path
       id="path830"
       style="font-style:normal;font-variant:normal;font-weight:300;font-stretch:normal;font-size:18.80600548px;font-family:'Segoe UI';-inkscape-font-specification:'Segoe UI Light';fill:#000000;fill-opacity:1;stroke-width:0.51278603"
       d="m 41.468712,15.232157 q 0.330574,0.247931 0.725427,0.449948 0.404035,0.192835 0.817253,0.330575 0.4224,0.128556 0.844801,0.202017 0.422401,0.06428 0.808071,0.06428 1.496767,0 2.240559,-0.578505 0.743792,-0.578505 0.743792,-1.662055 0,-0.523409 -0.17447,-0.909079 -0.17447,-0.394853 -0.541774,-0.73461 -0.367305,-0.339756 -0.927445,-0.670331 -0.56014,-0.339757 -1.322297,-0.762157 -0.844801,-0.459131 -1.450854,-0.863166 -0.59687,-0.4132184 -0.98254,-0.8356189 -0.376488,-0.4315831 -0.56014,-0.9274446 -0.17447,-0.4958615 -0.17447,-1.1294622 0,-0.798888 0.339757,-1.4324887 0.339757,-0.6336008 0.918262,-1.0743666 0.578505,-0.4499483 1.349845,-0.6886964 0.780523,-0.2387482 1.662054,-0.2387482 1.551863,0 2.598682,0.4315832 v 1.3498451 q -1.166193,-0.6703313 -2.736421,-0.6703313 -0.587688,0 -1.111097,0.146922 -0.514227,0.1377393 -0.90908,0.4132179 -0.38567,0.2754786 -0.615235,0.6886964 -0.220383,0.4040353 -0.220383,0.9458099 0,0.5142267 0.146922,0.8907141 0.156105,0.3673048 0.486679,0.6978791 0.339757,0.3305743 0.881531,0.6611487 0.550958,0.3213917 1.340663,0.7437925 0.826436,0.440765 1.441671,0.863166 0.615236,0.413218 1.019271,0.872349 0.413218,0.449948 0.615236,0.964175 0.202017,0.505044 0.202017,1.129462 0,0.863166 -0.321392,1.524315 -0.321391,0.651966 -0.899896,1.083549 -0.578505,0.431583 -1.377393,0.651966 -0.798888,0.220383 -1.753881,0.220383 -0.312209,0 -0.743792,-0.0551 -0.431583,-0.04591 -0.872349,-0.146922 -0.440766,-0.09183 -0.844801,-0.220382 -0.394852,-0.13774 -0.642783,-0.293844 z" />
    <path
       id="path832"
       style="font-style:normal;font-variant:normal;font-weight:300;font-stretch:normal;font-size:18.80600548px;font-family:'Segoe UI';-inkscape-font-specification:'Segoe UI Light';fill:#000000;fill-opacity:1;stroke-width:0.51278603"
       d="m 55.297739,17.38089 q -1.046818,0 -1.882437,-0.348939 -0.826436,-0.34894 -1.414123,-0.982541 -0.587688,-0.642783 -0.899897,-1.533497 -0.312209,-0.890714 -0.312209,-1.974264 0,-1.175375 0.330574,-2.10282 0.330575,-0.9274441 0.936628,-1.5702275 0.615235,-0.651966 1.478401,-0.991723 0.863167,-0.3397569 1.928351,-0.3397569 1.01927,0 1.836523,0.3397569 0.817254,0.3305743 1.386576,0.9641751 0.569323,0.6336008 0.872349,1.5426804 0.303026,0.909079 0.303026,2.066089 0,1.101915 -0.321391,2.010994 -0.312209,0.899897 -0.899897,1.551863 -0.587688,0.651966 -1.432489,1.010088 -0.844801,0.358122 -1.909985,0.358122 z m 0.09183,-8.8244976 q -0.771341,0 -1.395759,0.266296 -0.624418,0.2662959 -1.074366,0.7805227 -0.440766,0.5050439 -0.679514,1.2488359 -0.238748,0.73461 -0.238748,1.671237 0,0.881532 0.238748,1.588593 0.238748,0.707062 0.670331,1.212106 0.440766,0.505044 1.065184,0.780523 0.624418,0.266296 1.395758,0.266296 0.789706,0 1.395759,-0.257113 0.606052,-0.266296 1.028453,-0.762158 0.4224,-0.505044 0.633601,-1.230471 0.220383,-0.725427 0.220383,-1.652872 0,-1.900802 -0.844801,-2.9017074 -0.844801,-1.0100882 -2.415029,-1.0100882 z" />
    <path
       id="path834"
       style="font-style:normal;font-variant:normal;font-weight:300;font-stretch:normal;font-size:18.80600548px;font-family:'Segoe UI';-inkscape-font-specification:'Segoe UI Light';fill:#000000;fill-opacity:1;stroke-width:0.51278603"
       d="M 62.248981,17.160507 V 3.2396555 h 1.175375 V 17.160507 Z" />
  </g>
</svg>
